REM DIRINDEX 1\3,1\2\4,1\2\5,1\2\6
REM DIRNAME cjc137,folder01,folder02,folder03,folder04,folder05
TITLE ""
FILE "048.mp3" MP3
  TRACK 01 AUDIO
    TITLE "0:"
    INDEX 01 00:00:00
  TRACK 02 AUDIO
    TITLE "4:cjc137_1972"
    INDEX 01 00:00:03
  TRACK 03 AUDIO
    TITLE "0:"
    INDEX 01 00:01:09
  TRACK 04 AUDIO
    TITLE "6:cjc137_1973"
    INDEX 01 00:01:24
  TRACK 05 AUDIO
    TITLE "0:"
    INDEX 01 00:02:26
  TRACK 06 AUDIO
    TITLE "5:cjc137_1974"
    INDEX 01 00:02:38
  TRACK 07 AUDIO
    TITLE "0:"
    INDEX 01 00:03:45
  TRACK 08 AUDIO
    TITLE "4:cjc137_1975"
    INDEX 01 00:04:58
  TRACK 09 AUDIO
    TITLE "0:"
    INDEX 01 00:06:04
  TRACK 10 AUDIO
    TITLE "6:cjc137_1976"
    INDEX 01 00:06:14
  TRACK 11 AUDIO
    TITLE "0:"
    INDEX 01 00:07:37
  TRACK 12 AUDIO
    TITLE "5:cjc137_1977"
    INDEX 01 00:07:45
  TRACK 13 AUDIO
    TITLE "0:"
    INDEX 01 00:08:66
  TRACK 14 AUDIO
    TITLE "4:cjc137_1978"
    INDEX 01 00:10:02
  TRACK 15 AUDIO
    TITLE "0:"
    INDEX 01 00:11:21
  TRACK 16 AUDIO
    TITLE "6:cjc137_1979"
    INDEX 01 00:11:27
  TRACK 17 AUDIO
    TITLE "0:"
    INDEX 01 00:12:44
  TRACK 18 AUDIO
    TITLE "5:cjc137_1980"
    INDEX 01 00:12:52
  TRACK 19 AUDIO
    TITLE "0:"
    INDEX 01 00:13:69
  TRACK 20 AUDIO
    TITLE "4:cjc137_1981"
    INDEX 01 00:15:03
  TRACK 21 AUDIO
    TITLE "0:"
    INDEX 01 00:16:24
  TRACK 22 AUDIO
    TITLE "6:cjc137_1982"
    INDEX 01 00:16:32
  TRACK 23 AUDIO
    TITLE "0:"
    INDEX 01 00:17:43
  TRACK 24 AUDIO
    TITLE "5:cjc137_1983"
    INDEX 01 00:17:51
  TRACK 25 AUDIO
    TITLE "0:"
    INDEX 01 00:18:70
  TRACK 26 AUDIO
    TITLE "4:cjc137_1984"
    INDEX 01 00:20:04
  TRACK 27 AUDIO
    TITLE "0:"
    INDEX 01 00:21:11
  TRACK 28 AUDIO
    TITLE "6:cjc137_1985"
    INDEX 01 00:21:21
  TRACK 29 AUDIO
    TITLE "0:"
    INDEX 01 00:22:13
  TRACK 30 AUDIO
    TITLE "5:cjc137_1986"
    INDEX 01 00:22:23
  TRACK 31 AUDIO
    TITLE "0:"
    INDEX 01 00:23:30
  TRACK 32 AUDIO
    TITLE "4:cjc137_1987"
    INDEX 01 00:24:39
  TRACK 33 AUDIO
    TITLE "0:"
    INDEX 01 00:25:66
  TRACK 34 AUDIO
    TITLE "6:cjc137_1988"
    INDEX 01 00:25:72
  TRACK 35 AUDIO
    TITLE "0:"
    INDEX 01 00:27:24
  TRACK 36 AUDIO
    TITLE "5:cjc137_1989"
    INDEX 01 00:27:32
  TRACK 37 AUDIO
    TITLE "0:"
    INDEX 01 00:28:57
  TRACK 38 AUDIO
    TITLE "4:cjc137_1990"
    INDEX 01 00:29:66
  TRACK 39 AUDIO
    TITLE "0:"
    INDEX 01 00:30:73
  TRACK 40 AUDIO
    TITLE "6:cjc137_1991"
    INDEX 01 00:31:06
  TRACK 41 AUDIO
    TITLE "0:"
    INDEX 01 00:32:07
  TRACK 42 AUDIO
    TITLE "5:cjc137_1992"
    INDEX 01 00:32:15
  TRACK 43 AUDIO
    TITLE "0:"
    INDEX 01 00:33:22
  TRACK 44 AUDIO
    TITLE "4:cjc137_1993"
    INDEX 01 00:34:30
  TRACK 45 AUDIO
    TITLE "0:"
    INDEX 01 00:35:41
  TRACK 46 AUDIO
    TITLE "6:cjc137_1994"
    INDEX 01 00:35:49
  TRACK 47 AUDIO
    TITLE "0:"
    INDEX 01 00:36:64
  TRACK 48 AUDIO
    TITLE "5:cjc137_1995"
    INDEX 01 00:36:70
  TRACK 49 AUDIO
    TITLE "0:"
    INDEX 01 00:38:06
  TRACK 50 AUDIO
    TITLE "4:cjc137_1996"
    INDEX 01 00:39:15
  TRACK 51 AUDIO
    TITLE "0:"
    INDEX 01 00:40:36
  TRACK 52 AUDIO
    TITLE "6:cjc137_1997"
    INDEX 01 00:40:42
  TRACK 53 AUDIO
    TITLE "0:"
    INDEX 01 00:41:69
  TRACK 54 AUDIO
    TITLE "5:cjc137_1998"
    INDEX 01 00:42:00
  TRACK 55 AUDIO
    TITLE "0:"
    INDEX 01 00:43:23
  TRACK 56 AUDIO
    TITLE "4:cjc137_1999"
    INDEX 01 00:44:26
  TRACK 57 AUDIO
    TITLE "0:"
    INDEX 01 00:45:33
  TRACK 58 AUDIO
    TITLE "6:cjc137_2000"
    INDEX 01 00:45:41
  TRACK 59 AUDIO
    TITLE "0:"
    INDEX 01 00:46:62
  TRACK 60 AUDIO
    TITLE "5:cjc137_2001"
    INDEX 01 00:46:66
  TRACK 61 AUDIO
    TITLE "0:"
    INDEX 01 00:47:72
  TRACK 62 AUDIO
    TITLE "4:cjc137_2002"
    INDEX 01 00:49:06
  TRACK 63 AUDIO
    TITLE "0:"
    INDEX 01 00:50:05
  TRACK 64 AUDIO
    TITLE "6:cjc137_2003"
    INDEX 01 00:50:11
  TRACK 65 AUDIO
    TITLE "0:"
    INDEX 01 00:51:11
  TRACK 66 AUDIO
    TITLE "5:cjc137_2004"
    INDEX 01 00:51:18
  TRACK 67 AUDIO
    TITLE "0:"
    INDEX 01 00:52:18
  TRACK 68 AUDIO
    TITLE "4:cjc137_2005"
    INDEX 01 00:53:25
  TRACK 69 AUDIO
    TITLE "0:"
    INDEX 01 00:54:27
  TRACK 70 AUDIO
    TITLE "6:cjc137_2006"
    INDEX 01 00:54:36
  TRACK 71 AUDIO
    TITLE "0:"
    INDEX 01 00:55:22
  TRACK 72 AUDIO
    TITLE "5:cjc137_2007"
    INDEX 01 00:55:28
  TRACK 73 AUDIO
    TITLE "0:"
    INDEX 01 00:56:33
  TRACK 74 AUDIO
    TITLE "4:cjc137_2008"
    INDEX 01 00:57:39
  TRACK 75 AUDIO
    TITLE "0:"
    INDEX 01 00:58:60
  TRACK 76 AUDIO
    TITLE "6:cjc137_2009"
    INDEX 01 00:58:66
  TRACK 77 AUDIO
    TITLE "0:"
    INDEX 01 01:00:04
  TRACK 78 AUDIO
    TITLE "5:cjc137_2010"
    INDEX 01 01:00:13
  TRACK 79 AUDIO
    TITLE "0:"
    INDEX 01 01:01:34
  TRACK 80 AUDIO
    TITLE "4:cjc137_2011"
    INDEX 01 01:02:38
  TRACK 81 AUDIO
    TITLE "0:"
    INDEX 01 01:03:37
  TRACK 82 AUDIO
    TITLE "6:cjc137_2012"
    INDEX 01 01:03:41
  TRACK 83 AUDIO
    TITLE "0:"
    INDEX 01 01:04:39
  TRACK 84 AUDIO
    TITLE "5:cjc137_2013"
    INDEX 01 01:04:45
  TRACK 85 AUDIO
    TITLE "0:"
    INDEX 01 01:05:44
